<?xml version="1.0" encoding="UTF-8" standalone="no"?>
<svg
   width="161.91901"
   zoomAndPan="magnify"
   viewBox="0 0 121.43925 43.015205"
   height="57.353607"
   preserveAspectRatio="xMidYMid"
   version="1.0"
   id="svg6"
   xmlns="http://www.w3.org/2000/svg"
   xmlns:svg="http://www.w3.org/2000/svg">
  <defs
     id="defs1">
    <clipPath
       id="67c652805c">
      <path
         d="m 659.28125,384.02344 h 121.5 V 426 h -121.5 z m 0,0"
         clip-rule="nonzero"
         id="path1" />
    </clipPath>
  </defs>
  <path
     fill="#345c72"
     d="m 100.08354,1.9767781 19.55078,19.5546799 -19.55078,19.55078 -19.550778,-19.55078 z m 0,0"
     fill-opacity="1"
     fill-rule="nonzero"
     id="path2" />
  <path
     fill="#f47f5e"
     d="m 73.845262,1.9767781 19.55469,19.5546799 -19.55469,19.55078 -19.55078,-19.55078 z m 0,0"
     fill-opacity="1"
     fill-rule="nonzero"
     id="path3" />
  <path
     fill="#b1e4d3"
     d="m 47.610882,1.9767781 19.55078,19.5546799 -19.55078,19.55078 -19.55078,-19.55078 z m 0,0"
     fill-opacity="1"
     fill-rule="nonzero"
     id="path4" />
  <path
     fill="#ffd25d"
     d="m 21.372602,1.9767781 19.55469,19.5546799 -19.55469,19.55078 -19.55078,-19.55078 z m 0,0"
     fill-opacity="1"
     fill-rule="nonzero"
     id="path5" />
  <g
     clip-path="url(#67c652805c)"
     id="g6"
     transform="translate(-659.26021,-383.46463)">
    <path
       fill="#000000"
       d="m 779.89844,403.99219 -19.55078,-19.55078 c -0.26563,-0.26563 -0.625,-0.41797 -1.00391,-0.41797 -0.375,0 -0.73438,0.15234 -1,0.41797 l -12.11719,12.11328 -12.11719,-12.11328 c -0.26562,-0.26563 -0.625,-0.41797 -1,-0.41797 -0.3789,0 -0.73828,0.15234 -1.0039,0.41797 l -12.11719,12.11328 2.00781,2.00781 11.11328,-11.11328 17.54688,17.54687 -17.54688,17.54688 -11.11328,-11.11328 5.42969,-5.4336 c 0.26563,-0.26562 0.41406,-0.625 0.41406,-1 0,-0.3789 -0.14843,-0.73828 -0.41406,-1.0039 L 707.875,384.44141 c -0.26953,-0.26563 -0.62891,-0.41797 -1.00391,-0.41797 -0.375,0 -0.73828,0.15234 -1.0039,0.41797 l -12.11328,12.11328 2.0039,2.00781 11.11328,-11.11328 17.54688,17.54687 -17.54688,17.54688 -11.11328,-11.11328 -0.3789,0.3789 5.80859,-5.8125 c 0.26953,-0.26562 0.41797,-0.625 0.41797,-1 0,-0.3789 -0.14844,-0.73828 -0.41797,-1.0039 l -19.55078,-19.55078 c -0.26563,-0.26563 -0.625,-0.41797 -1.00391,-0.41797 -0.375,0 -0.73437,0.15234 -1,0.41797 l -19.55469,19.55078 c -0.55468,0.55468 -0.55468,1.45312 0,2.0039 l 19.55469,19.55469 c 0.26563,0.26563 0.625,0.41406 1,0.41406 0.37891,0 0.73828,-0.14843 1.00391,-0.41406 l 12.11719,-12.11719 12.11328,12.11719 c 0.26562,0.26563 0.6289,0.41406 1.0039,0.41406 0.375,0 0.73438,-0.14843 1.00391,-0.41406 l 12.11328,-12.11719 12.11719,12.11719 c 0.26562,0.26563 0.625,0.41406 1.0039,0.41406 0.375,0 0.73438,-0.14843 1,-0.41406 l 19.55469,-19.55469 c 0.55078,-0.55078 0.55078,-1.44922 0,-2.0039 l -5.43359,-5.42969 11.11328,-11.11328 17.54687,17.54687 -17.54687,17.54688 -11.11328,-11.11328 -2.00391,2.0039 12.11719,12.11719 c 0.26562,0.26563 0.625,0.41406 1,0.41406 0.37891,0 0.73828,-0.14843 1.00391,-0.41406 l 19.55078,-19.55469 c 0.55468,-0.55078 0.55468,-1.44922 0,-2.0039 z m -99.26563,18.55078 -17.54687,-17.54688 17.54687,-17.54687 17.54688,17.54687 z m 0,0"
       fill-opacity="1"
       fill-rule="nonzero"
       id="path6" />
  </g>
  <rect
     style="opacity:0;fill:#000000;stroke-width:0.75"
     id="rect6"
     width="121.43923"
     height="43.015179"
     x="-1.5156526e-05"
     y="-1.7600387e-06"
     ry="7.3874226" />
</svg>
