<?xml version="1.0" encoding="UTF-8" standalone="no"?>
<svg
   width="457.04346"
   zoomAndPan="magnify"
   viewBox="0 0 342.78259 364.69567"
   height="486.26089"
   preserveAspectRatio="xMidYMid"
   version="1.0"
   id="svg7"
   xmlns="http://www.w3.org/2000/svg"
   xmlns:svg="http://www.w3.org/2000/svg">
  <defs
     id="defs2">
    <clipPath
       id="ddaea703c9">
      <path
         d="m 590,535 h 260 v 47.20703 H 590 Z m 0,0"
         clip-rule="nonzero"
         id="path1" />
    </clipPath>
    <clipPath
       id="44391412bb">
      <path
         d="m 554.21875,393 h 331.5 v 142 h -331.5 z m 0,0"
         clip-rule="nonzero"
         id="path2" />
    </clipPath>
  </defs>
  <g
     clip-path="url(#ddaea703c9)"
     id="g3"
     transform="translate(-549.39129,-220.69565)">
    <path
       fill="#414042"
       d="m 844.01562,570.39844 h -66.0664 c 0.66406,-1.85547 1.08984,-3.82032 1.08984,-5.90235 0,-7.55078 -9,-21.37109 -12.86328,-26.96484 -2.19531,-3.17969 -7.52344,-3.17969 -9.71484,0 -3.86719,5.59375 -12.86328,19.41406 -12.86328,26.96484 0,2.08203 0.42578,4.04688 1.08984,5.90235 h -8.08984 c 0.66406,-1.85547 1.08984,-3.82032 1.08984,-5.90235 0,-7.55078 -8.99609,-21.37109 -12.86328,-26.96484 -2.19141,-3.17969 -7.52344,-3.17969 -9.71485,0 -3.86328,5.59375 -12.86328,19.41406 -12.86328,26.96484 0,2.08203 0.42578,4.04688 1.08985,5.90235 H 695.25 c 0.66406,-1.85547 1.08984,-3.82032 1.08984,-5.90235 0,-7.55078 -9,-21.37109 -12.86328,-26.96484 -2.19531,-3.17969 -7.52344,-3.17969 -9.71484,0 -3.86719,5.59375 -12.86328,19.41406 -12.86328,26.96484 0,2.08203 0.42578,4.04688 1.08984,5.90235 h -66.07031 c -3.26563,0 -5.90625,2.64062 -5.90625,5.90234 0,3.26563 2.64062,5.90625 5.90625,5.90625 h 248.09765 c 3.26563,0 5.90625,-2.64062 5.90625,-5.90625 0,-3.26172 -2.64062,-5.90234 -5.90625,-5.90234"
       fill-opacity="1"
       fill-rule="nonzero"
       id="path3" />
  </g>
  <g
     clip-path="url(#44391412bb)"
     id="g4"
     transform="translate(-549.39129,-220.69565)">
    <path
       fill="#414042"
       d="m 814.48047,458.25 c 0,3.26172 -2.64063,5.90234 -5.90625,5.90234 -3.26563,0 -5.90625,-2.64062 -5.90625,-5.90234 v -35.41797 c 0,-3.26172 2.64062,-5.90234 5.90625,-5.90234 3.26562,0 5.90625,2.64062 5.90625,5.90234 z m 0,35.41406 c 0,3.26563 -2.64063,5.90235 -5.90625,5.90235 -3.26563,0 -5.90625,-2.63672 -5.90625,-5.90235 v -11.80469 c 0,-3.26171 2.64062,-5.90234 5.90625,-5.90234 3.26562,0 5.90625,2.64063 5.90625,5.90234 z M 867.64453,405.125 h -29.53516 v -5.90234 c 0,-3.26172 -2.64062,-5.90235 -5.90625,-5.90235 H 607.73437 c -3.26562,0 -5.91015,2.64063 -5.91015,5.90235 v 5.90234 h -29.53516 c -9.76953,0 -17.71875,7.94531 -17.71875,17.70703 0,9.76563 7.94922,17.71094 17.71875,17.71094 h 29.53516 v 64.92578 c 0,16.28125 13.24609,29.51562 29.53906,29.51562 h 177.21094 c 16.28906,0 29.53515,-13.23437 29.53515,-29.51562 v -64.92578 h 29.53516 c 9.77344,0 17.72266,-7.94531 17.72266,-17.71094 0,-9.76172 -7.94922,-17.70703 -17.72266,-17.70703"
       fill-opacity="1"
       fill-rule="nonzero"
       id="path4" />
  </g>
  <path
     fill="#414042"
     d="m 109.78449,86.011382 c 0.55469,0.16016 1.12109,0.24219 1.66406,0.24219 2.5586,0 4.91407,-1.67188 5.66407,-4.2461 0.92187,-3.12109 -0.875,-6.40625 -4.00391,-7.32031 -19.914068,-5.84375 -25.230478,-12.32422 -25.230478,-15.22656 0,-7.58594 27.550788,-21.16797 80.261728,-23.30078 l -6.29688,6.30469 c -2.30859,2.30859 -2.30859,6.04296 0,8.34765 1.15235,1.15235 2.66407,1.73047 4.17579,1.73047 1.51171,0 3.02343,-0.57812 4.17578,-1.73047 l 16.69531,-16.70312 c 1.10937,-1.10938 1.73047,-2.61719 1.73047,-4.17578 0,-1.56641 -0.6211,-3.06641 -1.73047,-4.17188 L 170.15949,9.0777922 c -2.30469,-2.30469 -6.04297,-2.30469 -8.35156,0 -2.3086,2.3085898 -2.3086,6.0546798 0,8.3476498 l 6.9414,6.92188 c -48.01953,1.91015 -92.687508,13.86328 -92.687508,35.11328 0,10.90625 11.66407,20.09375 33.722668,26.55078"
     fill-opacity="1"
     fill-rule="nonzero"
     id="path5" />
  <path
     fill="#414042"
     d="m 186.90168,67.784822 c -2.3086,-2.3086 -6.0586,-2.29688 -8.36328,-0.0117 l -16.40625,16.34766 c -0.0547,0.043 -0.0937,0.0976 -0.14453,0.14062 l -0.17969,0.17969 c -0.14844,0.15234 -0.21875,0.36328 -0.35156,0.53125 -0.3125,0.39062 -0.625,0.77734 -0.83204,1.24609 -0.16796,0.36719 -0.21093,0.76563 -0.30078,1.16406 -0.0664,0.3086 -0.21875,0.58594 -0.23437,0.91016 0,0.0508 0.0234,0.0977 0.0234,0.14844 0,0.0586 -0.0352,0.11719 -0.0352,0.17578 0,0.42969 0.15625,0.83984 0.24609,1.25391 0.0664,0.27734 0.0664,0.5664 0.16797,0.82031 0.19141,0.51953 0.51953,0.96094 0.84766,1.41015 0.11719,0.15235 0.1914,0.33594 0.32422,0.48047 0.0586,0.0625 0.082,0.15625 0.14453,0.21875 l 16.69531,16.714848 c 1.15234,1.15234 2.66406,1.73047 4.17578,1.73047 1.51172,0 3.02344,-0.57813 4.17578,-1.73047 2.3086,-2.29297 2.3086,-6.03907 0,-8.34375 l -6.33203,-6.343748 c 0.63281,0.008 1.23438,0.0469 1.86719,0.0469 52.83984,0 106.32812,-12.16406 106.32812,-35.41406 0,-21.85938 -44.89062,-30.19531 -64.19531,-32.76563 -3.16015,-0.44921 -6.20703,1.84375 -6.64453,5.07422 -0.42578,3.23828 1.84766,6.19922 5.07813,6.64063 37.20703,4.94531 53.94531,15.28515 53.94531,21.05078 0,8.24219 -32.46485,23.60937 -94.51172,23.60937 -0.82031,0 -1.58984,-0.0508 -2.40625,-0.0586 l 6.90625,-6.87109 c 2.30859,-2.30469 2.30859,-6.03907 0.0117,-8.35547"
     fill-opacity="1"
     fill-rule="nonzero"
     id="path6" />
  <path
     fill="#414042"
     d="m 269.18683,93.722322 c -6.68359,-3.875 -14.73437,-4.78516 -22.11718,-2.48828 -7.375,2.28125 -13.51172,7.58593 -16.84766,14.535148 l -26.41406,55.05078 h 54.26562 l 20.13282,-27.38281 c 4.36328,-6.35156 5.88671,-14.30469 4.17578,-21.82422 -1.70703,-7.52734 -6.51563,-14.039058 -13.19532,-17.890618"
     fill-opacity="1"
     fill-rule="nonzero"
     id="path7" />
  <rect
     style="opacity:0;fill:#000000;stroke-width:0.75"
     id="rect7"
     width="342.78259"
     height="364.69568"
     x="-2.0711855e-06"
     y="2.9912729e-07"
     ry="7.3874226" />
</svg>
