<?xml version="1.0" encoding="UTF-8" standalone="no"?>
<svg
   width="348.50876"
   zoomAndPan="magnify"
   viewBox="0 0 261.38157 44.081657"
   height="58.775543"
   preserveAspectRatio="xMidYMid"
   version="1.0"
   id="svg5"
   xmlns="http://www.w3.org/2000/svg"
   xmlns:svg="http://www.w3.org/2000/svg">
  <defs
     id="defs1">
    <clipPath
       id="04c519c4de">
      <path
         d="M 590.01562,384.28906 H 850 v 41.25 H 590.01562 Z m 0,0"
         clip-rule="nonzero"
         id="path1" />
    </clipPath>
  </defs>
  <path
     fill="#f47f5e"
     d="m 135.96448,22.115145 15.01953,-15.0195403 15.01953,15.0195403 -15.01953,15.01562 z m 0,0"
     fill-opacity="1"
     fill-rule="nonzero"
     id="path2" />
  <path
     fill="#ffd25d"
     d="m 95.65589,22.115145 15.01953,-15.0195403 15.01953,15.0195403 -15.01953,15.01562 z m 0,0"
     fill-opacity="1"
     fill-rule="nonzero"
     id="path3" />
  <path
     fill="#b1e4d3"
     d="M 111.99573,22.111235 130.82776,3.2792047 149.6637,22.111235 130.82776,40.947175 Z m 0,0"
     fill-opacity="1"
     fill-rule="nonzero"
     id="path4" />
  <g
     clip-path="url(#04c519c4de)"
     id="g5"
     transform="translate(-589.16833,-382.88877)">
    <path
       fill="#000000"
       d="m 848.10937,403.12891 h -92.16015 l 0.55078,0.54687 -15.01953,-15.01953 c -0.35156,-0.35156 -0.82813,-0.54688 -1.32813,-0.54688 -0.49609,0 -0.97265,0.19532 -1.32422,0.54688 l -6.84375,6.84766 -10.66015,-10.66407 c -0.35156,-0.35156 -0.82813,-0.54687 -1.32422,-0.54687 -0.49609,0 -0.97266,0.19531 -1.32422,0.54687 l -18.83594,18.83594 c -0.73047,0.73438 -0.73047,1.91797 0,2.65234 l 5.52344,5.52344 -5.51953,5.51953 -12.36719,-12.36718 12.36719,-12.3711 5.51953,5.51953 2.65234,-2.64843 -6.84375,-6.84766 c -0.35156,-0.35156 -0.82812,-0.54688 -1.32812,-0.54688 -0.49609,0 -0.97266,0.19532 -1.32422,0.54688 L 683.5,403.67578 l 0.55078,-0.54687 h -92.16016 c -1.03515,0 -1.875,0.83984 -1.875,1.875 0,1.03515 0.83985,1.87109 1.875,1.87109 h 92.16016 l -0.55078,-0.54688 15.01953,15.01954 c 0.36719,0.36718 0.84766,0.54687 1.32422,0.54687 0.48047,0 0.96094,-0.18359 1.32812,-0.54687 l 6.84375,-6.84375 10.66016,10.66015 c 0.36328,0.36328 0.84375,0.54688 1.32422,0.54688 0.48047,0 0.96094,-0.1836 1.32422,-0.54688 l 10.66015,-10.66015 6.84375,6.84375 c 0.36719,0.36718 0.84766,0.54687 1.32422,0.54687 0.48047,0 0.96094,-0.17969 1.32813,-0.54687 L 756.5,406.32812 755.94922,406.875 h 92.16015 c 1.03516,0 1.875,-0.83594 1.875,-1.87109 0,-1.03516 -0.83984,-1.875 -1.875,-1.875 z M 720,421.1875 703.81641,405.00391 720,388.81641 l 16.18359,16.1875 z m 20.15234,-3.81641 -5.51562,-5.51953 5.52344,-5.52344 c 0.73046,-0.73437 0.73046,-1.91796 0,-2.65234 l -5.61329,-5.61328 0.0898,0.0898 5.51562,-5.51953 12.3711,12.3711 z m 0,0"
       fill-opacity="1"
       fill-rule="nonzero"
       id="path5" />
  </g>
  <rect
     style="opacity:0;fill:#000000;stroke-width:0.75"
     id="rect5"
     width="261.38159"
     height="44.081661"
     x="5.0056583e-06"
     y="-1.9038765e-06"
     ry="7.3874226" />
</svg>
