<?xml version="1.0" encoding="UTF-8" standalone="no"?>
<svg
   width="406.95654"
   zoomAndPan="magnify"
   viewBox="0 0 305.21741 374.08698"
   height="498.78265"
   preserveAspectRatio="xMidYMid"
   version="1.0"
   id="svg2"
   xmlns="http://www.w3.org/2000/svg"
   xmlns:svg="http://www.w3.org/2000/svg">
  <defs
     id="defs1">
    <clipPath
       id="6835ca6e3b">
      <path
         d="m 576.70703,225.88281 h 286.5 V 584 h -286.5 z m 0,0"
         clip-rule="nonzero"
         id="path1" />
    </clipPath>
  </defs>
  <g
     clip-path="url(#6835ca6e3b)"
     id="g2"
     transform="translate(-568.17388,-219.13045)">
    <path
       fill="#000000"
       d="m 784.55078,335.40625 c 0.55469,0.80469 0.89453,1.69531 1.01563,2.66797 0.12109,0.97265 0.0117,1.91797 -0.33204,2.83594 l -17.90625,47.79687 c -0.21484,0.57031 -0.50781,1.09766 -0.8789,1.57422 -0.375,0.48047 -0.8125,0.89453 -1.3125,1.24219 -0.4961,0.34375 -1.03906,0.60937 -1.61719,0.78906 -0.57812,0.18359 -1.17187,0.27344 -1.78125,0.27344 h -71.625 c -0.66406,0 -1.3125,-0.10938 -1.94141,-0.32422 -0.6289,-0.21875 -1.20703,-0.53125 -1.73046,-0.94141 -0.52735,-0.41015 -0.96875,-0.89453 -1.33204,-1.45312 -0.36328,-0.5586 -0.625,-1.16016 -0.78515,-1.80469 l -15.64844,-62.64844 c -0.16016,-0.64453 -0.42187,-1.25 -0.78125,-1.80859 -0.36328,-0.5586 -0.80859,-1.04297 -1.33203,-1.45313 -0.52344,-0.41015 -1.10156,-0.72656 -1.73047,-0.9414 -0.63281,-0.21875 -1.28125,-0.32422 -1.94531,-0.32422 h -8.58594 c -0.39062,0 -0.78125,-0.0391 -1.16406,-0.11328 -0.38672,-0.0781 -0.75781,-0.19141 -1.1211,-0.33985 -0.35937,-0.15234 -0.70703,-0.33593 -1.03125,-0.55468 -0.32421,-0.21875 -0.6289,-0.46485 -0.90234,-0.74219 -0.27734,-0.27735 -0.52734,-0.57813 -0.74609,-0.90625 -0.21485,-0.32422 -0.39844,-0.66797 -0.55078,-1.03125 -0.14844,-0.36328 -0.26172,-0.73828 -0.33985,-1.1211 -0.0742,-0.38671 -0.11328,-0.77343 -0.11328,-1.16796 0,-0.39063 0.0391,-0.77735 0.11328,-1.16407 0.0781,-0.38281 0.19141,-0.75781 0.33985,-1.12109 0.15234,-0.36328 0.33593,-0.70703 0.55078,-1.03125 0.21875,-0.32813 0.46875,-0.62891 0.74609,-0.90625 0.27344,-0.27734 0.57813,-0.52734 0.90234,-0.74219 0.32422,-0.21875 0.67188,-0.40234 1.03125,-0.55469 0.36329,-0.14843 0.73438,-0.26171 1.1211,-0.33984 0.38281,-0.0742 0.77344,-0.11328 1.16406,-0.11328 h 8.58594 c 0.99219,0 1.97656,0.0781 2.95703,0.24219 0.97656,0.16406 1.93359,0.40625 2.87109,0.72656 0.9375,0.32422 1.84375,0.72266 2.71485,1.19531 0.875,0.47266 1.69922,1.01563 2.48047,1.625 0.78125,0.61328 1.50781,1.28516 2.17968,2.01563 0.66797,0.73047 1.27344,1.51562 1.81641,2.34765 0.53906,0.83203 1.00781,1.70313 1.40234,2.61328 0.39453,0.91016 0.71094,1.84766 0.94922,2.8125 l 2.57813,10.32032 h 96.80859 c 0.98047,0 1.90234,0.22656 2.76953,0.67968 0.86719,0.45704 1.57813,1.08594 2.13672,1.89063 z m -82.5,63.15625 c -0.58594,0 -1.17187,0.0273 -1.75391,0.0859 -0.58593,0.0586 -1.16406,0.14453 -1.73828,0.25781 -0.57812,0.11328 -1.14453,0.25781 -1.70703,0.42578 -0.55859,0.17188 -1.11328,0.36719 -1.65234,0.59375 -0.54297,0.22266 -1.07031,0.47656 -1.58985,0.75391 -0.51562,0.27343 -1.01953,0.57812 -1.50781,0.90234 -0.48828,0.32813 -0.95703,0.67578 -1.41015,1.04688 -0.45313,0.375 -0.88672,0.76562 -1.30079,1.18359 -0.41796,0.41406 -0.80859,0.84766 -1.17968,1.30078 -0.375,0.45703 -0.72266,0.92578 -1.04688,1.41406 -0.32812,0.48828 -0.6289,0.99219 -0.90625,1.50782 -0.27734,0.51953 -0.52734,1.05078 -0.75,1.58984 -0.22656,0.54297 -0.42187,1.09766 -0.59375,1.65625 -0.16797,0.5625 -0.3125,1.13281 -0.42578,1.70703 -0.11328,0.57813 -0.19922,1.15625 -0.25781,1.74219 -0.0586,0.58203 -0.0859,1.16797 -0.0859,1.7539 0,0.58985 0.0273,1.17579 0.0859,1.75782 0.0586,0.58593 0.14453,1.16406 0.25781,1.74218 0.11328,0.57422 0.25781,1.14454 0.42578,1.70313 0.17188,0.5625 0.36719,1.11719 0.59375,1.65625 0.22266,0.54297 0.47266,1.07422 0.75,1.59375 0.27735,0.51562 0.57813,1.01953 0.90625,1.50781 0.32422,0.48828 0.67188,0.95703 1.04688,1.41406 0.37109,0.45313 0.76172,0.88672 1.17968,1.30079 0.41407,0.41406 0.84766,0.80859 1.30079,1.18359 0.45312,0.37109 0.92187,0.71875 1.41015,1.04687 0.48828,0.32422 0.99219,0.62891 1.50781,0.90235 0.51954,0.27734 1.04688,0.52734 1.58985,0.7539 0.53906,0.22266 1.09375,0.42188 1.65234,0.59375 0.5625,0.16797 1.12891,0.3125 1.70703,0.42579 0.57422,0.11328 1.15235,0.19921 1.73828,0.25781 0.58204,0.0586 1.16797,0.0859 1.75391,0.0859 0.58594,0 1.17188,-0.0274 1.75391,-0.0859 0.58593,-0.0586 1.16406,-0.14453 1.73828,-0.25781 0.57812,-0.11329 1.14453,-0.25782 1.70703,-0.42579 0.55859,-0.17187 1.11328,-0.37109 1.65234,-0.59375 0.54297,-0.22656 1.07032,-0.47656 1.58985,-0.7539 0.51562,-0.27344 1.01953,-0.57813 1.50781,-0.90235 0.48828,-0.32812 0.95703,-0.67578 1.41016,-1.04687 0.45312,-0.375 0.88671,-0.76953 1.30078,-1.18359 0.41797,-0.41407 0.80859,-0.84766 1.17968,-1.30079 0.375,-0.45703 0.72266,-0.92578 1.04688,-1.41406 0.32812,-0.48828 0.62891,-0.99219 0.90625,-1.50781 0.27344,-0.51953 0.52734,-1.05078 0.75,-1.59375 0.22266,-0.53906 0.42187,-1.09375 0.59375,-1.65625 0.16797,-0.55859 0.3125,-1.12891 0.42578,-1.70313 0.11328,-0.57812 0.19922,-1.15625 0.25781,-1.74218 0.0586,-0.58203 0.0859,-1.16797 0.0859,-1.75782 0,-0.58593 -0.0312,-1.17187 -0.0898,-1.7539 -0.0547,-0.58594 -0.14453,-1.16406 -0.25782,-1.73828 -0.11328,-0.57813 -0.25781,-1.14453 -0.42968,-1.70703 -0.16797,-0.5625 -0.36719,-1.11329 -0.58985,-1.65625 -0.22656,-0.54297 -0.47656,-1.07032 -0.7539,-1.58985 -0.27735,-0.51562 -0.57813,-1.01953 -0.90235,-1.50781 -0.32812,-0.48828 -0.67578,-0.95703 -1.04687,-1.41016 -0.3711,-0.45312 -0.76563,-0.89062 -1.17969,-1.30468 -0.41406,-0.41407 -0.84766,-0.8086 -1.30078,-1.17969 -0.45313,-0.375 -0.92578,-0.72266 -1.41016,-1.04688 -0.48828,-0.32812 -0.99218,-0.6289 -1.50781,-0.90625 -0.51562,-0.27734 -1.04687,-0.52734 -1.58984,-0.7539 -0.53907,-0.22266 -1.08985,-0.42188 -1.65235,-0.59375 -0.5625,-0.16797 -1.1289,-0.3125 -1.70312,-0.42578 -0.57422,-0.11719 -1.15625,-0.20313 -1.73828,-0.26172 -0.58203,-0.0586 -1.16797,-0.0859 -1.75391,-0.0859 z m 47.75,0 c -0.58594,0 -1.17187,0.0273 -1.75391,0.0859 -0.58593,0.0586 -1.16406,0.14453 -1.73828,0.25781 -0.57812,0.11328 -1.14453,0.25781 -1.70703,0.42578 -0.55859,0.17188 -1.11328,0.36719 -1.65234,0.59375 -0.54297,0.22266 -1.07031,0.47656 -1.58985,0.75391 -0.51562,0.27343 -1.01953,0.57812 -1.50781,0.90234 -0.48828,0.32813 -0.95703,0.67578 -1.41015,1.04688 -0.45313,0.375 -0.88672,0.76562 -1.30079,1.18359 -0.41796,0.41406 -0.80859,0.84766 -1.17968,1.30078 -0.375,0.45703 -0.72266,0.92578 -1.04688,1.41406 -0.32812,0.48828 -0.6289,0.99219 -0.90625,1.50782 -0.27734,0.51953 -0.52734,1.05078 -0.75,1.58984 -0.22656,0.54297 -0.42187,1.09766 -0.59375,1.65625 -0.16797,0.5625 -0.3125,1.13281 -0.42578,1.70703 -0.11328,0.57813 -0.19922,1.15625 -0.25781,1.74219 -0.0586,0.58203 -0.0859,1.16797 -0.0859,1.7539 0,0.58985 0.0273,1.17579 0.0859,1.75782 0.0586,0.58593 0.14453,1.16406 0.25781,1.74218 0.11328,0.57422 0.25781,1.14454 0.42578,1.70313 0.17188,0.5625 0.36719,1.11719 0.59375,1.65625 0.22266,0.54297 0.47266,1.07422 0.75,1.59375 0.27735,0.51562 0.57813,1.01953 0.90625,1.50781 0.32422,0.48828 0.67188,0.95703 1.04688,1.41406 0.37109,0.45313 0.76172,0.88672 1.17968,1.30079 0.41407,0.41406 0.84766,0.80859 1.30079,1.18359 0.45312,0.37109 0.92187,0.71875 1.41015,1.04687 0.48828,0.32422 0.99219,0.62891 1.50781,0.90235 0.51954,0.27734 1.04688,0.52734 1.58985,0.7539 0.53906,0.22266 1.09375,0.42188 1.65234,0.59375 0.5625,0.16797 1.12891,0.3125 1.70703,0.42579 0.57422,0.11328 1.15235,0.19921 1.73828,0.25781 0.58204,0.0586 1.16797,0.0859 1.75391,0.0859 0.58594,0 1.17188,-0.0274 1.75391,-0.0859 0.58593,-0.0586 1.16406,-0.14453 1.73828,-0.25781 0.57812,-0.11329 1.14453,-0.25782 1.70703,-0.42579 0.55859,-0.17187 1.11328,-0.37109 1.65234,-0.59375 0.54297,-0.22656 1.07032,-0.47656 1.58985,-0.7539 0.51562,-0.27344 1.01953,-0.57813 1.50781,-0.90235 0.48828,-0.32812 0.95703,-0.67578 1.41016,-1.04687 0.45312,-0.375 0.88671,-0.76953 1.30078,-1.18359 0.41797,-0.41407 0.80859,-0.84766 1.17968,-1.30079 0.375,-0.45703 0.72266,-0.92578 1.04688,-1.41406 0.32812,-0.48828 0.62891,-0.99219 0.90625,-1.50781 0.27344,-0.51953 0.52734,-1.05078 0.75,-1.59375 0.22266,-0.53906 0.42187,-1.09375 0.59375,-1.65625 0.16797,-0.55859 0.3125,-1.12891 0.42578,-1.70313 0.11328,-0.57812 0.19922,-1.15625 0.25781,-1.74218 0.0586,-0.58203 0.0859,-1.16797 0.0859,-1.75782 0,-0.58593 -0.0312,-1.17187 -0.0898,-1.7539 -0.0547,-0.58594 -0.14453,-1.16406 -0.25782,-1.73828 -0.11328,-0.57813 -0.25781,-1.14453 -0.42968,-1.70703 -0.16797,-0.5625 -0.36719,-1.11329 -0.58985,-1.65625 -0.22656,-0.54297 -0.47656,-1.07032 -0.7539,-1.58985 -0.27735,-0.51562 -0.57813,-1.01953 -0.90235,-1.50781 -0.32812,-0.48828 -0.67578,-0.95703 -1.04687,-1.41016 -0.3711,-0.45312 -0.76563,-0.89062 -1.17969,-1.30468 -0.41406,-0.41407 -0.84766,-0.8086 -1.30078,-1.17969 -0.45313,-0.375 -0.92578,-0.72266 -1.41016,-1.04688 -0.48828,-0.32812 -0.99218,-0.6289 -1.50781,-0.90625 -0.51562,-0.27734 -1.04687,-0.52734 -1.58984,-0.7539 -0.53907,-0.22266 -1.08985,-0.42188 -1.65235,-0.59375 -0.5625,-0.16797 -1.1289,-0.3125 -1.70312,-0.42578 -0.57422,-0.11719 -1.15625,-0.20313 -1.73828,-0.26172 -0.58203,-0.0586 -1.16797,-0.0859 -1.75391,-0.0859 z m 113.40625,-29.875 c 0,109.30469 -133.99609,209.70703 -139.70312,213.92578 -0.51172,0.38281 -1.07422,0.67188 -1.67969,0.87109 -0.60547,0.19922 -1.23047,0.30079 -1.86719,0.30079 -0.63672,0 -1.26172,-0.10157 -1.86719,-0.30079 -0.60547,-0.19921 -1.16797,-0.48828 -1.67968,-0.87109 -5.70704,-4.21875 -139.70313,-104.62109 -139.70313,-213.92578 0,-2.34766 0.0586,-4.69141 0.17188,-7.03906 0.11718,-2.34375 0.28906,-4.6836 0.51953,-7.01563 0.22656,-2.33594 0.51562,-4.66406 0.85937,-6.98828 0.34375,-2.32031 0.7461,-4.63281 1.20313,-6.93359 0.45703,-2.30078 0.96875,-4.58985 1.53906,-6.86719 0.57031,-2.27734 1.19531,-4.53906 1.875,-6.78516 0.67969,-2.24609 1.41406,-4.47265 2.20703,-6.68359 0.78906,-2.20703 1.63281,-4.39844 2.52734,-6.56641 0.89844,-2.16797 1.84766,-4.3125 2.85157,-6.43359 1,-2.12109 2.05468,-4.21484 3.16015,-6.28516 1.10547,-2.07031 2.26172,-4.11328 3.46485,-6.125 1.20703,-2.01172 2.46093,-3.99609 3.76172,-5.94531 1.30468,-1.95312 2.65234,-3.87109 4.05078,-5.75391 1.39453,-1.88671 2.83593,-3.73437 4.32422,-5.55078 1.48828,-1.8125 3.01953,-3.58984 4.59375,-5.32812 1.57421,-1.73828 3.1914,-3.4375 4.84765,-5.09766 1.65625,-1.66015 3.35547,-3.27734 5.09375,-4.85547 1.73438,-1.57422 3.51172,-3.10547 5.32422,-4.59765 1.80859,-1.48828 3.65625,-2.92969 5.54297,-4.32813 1.88281,-1.39844 3.79687,-2.75 5.74609,-4.05469 1.94922,-1.30078 3.92969,-2.55859 5.94141,-3.76562 2.01172,-1.20313 4.05078,-2.35938 6.11719,-3.46875 2.0664,-1.10547 4.16015,-2.16016 6.28125,-3.16406 2.11718,-1.00391 4.26172,-1.95313 6.42578,-2.85157 2.16797,-0.89843 4.35156,-1.74218 6.5625,-2.53125 2.20703,-0.79296 4.42969,-1.52734 6.67578,-2.21093 2.24219,-0.67969 4.5,-1.30469 6.77344,-1.875 2.27734,-0.57032 4.5625,-1.08594 6.86328,-1.54297 2.29687,-0.45703 4.60547,-0.85938 6.92578,-1.20313 2.32031,-0.34375 4.64453,-0.63281 6.98047,-0.86328 2.33203,-0.22656 4.66797,-0.40234 7.01172,-0.51562 2.33984,-0.11719 4.68359,-0.17188 7.02734,-0.17188 2.34375,0 4.6875,0.0547 7.02734,0.17188 2.34375,0.11328 4.67969,0.28906 7.01172,0.51562 2.33594,0.23047 4.66016,0.51953 6.98047,0.86328 2.32031,0.34375 4.62891,0.7461 6.92578,1.20313 2.30078,0.45703 4.58594,0.97265 6.86328,1.54297 2.27344,0.57031 4.53125,1.19531 6.77344,1.875 2.2461,0.68359 4.46875,1.41797 6.67578,2.21093 2.20703,0.78907 4.39453,1.63282 6.5625,2.53125 2.16407,0.89844 4.3086,1.84766 6.42578,2.85157 2.1211,1.0039 4.21485,2.05859 6.28125,3.16406 2.06641,1.10937 4.10547,2.26562 6.11719,3.46875 2.01172,1.20703 3.99219,2.46484 5.94141,3.76562 1.94922,1.30469 3.86328,2.65625 5.74609,4.05469 1.88672,1.39844 3.73438,2.83985 5.54297,4.32813 1.8125,1.49218 3.58984,3.02343 5.32422,4.59765 1.73828,1.57813 3.4375,3.19532 5.09375,4.85547 1.65625,1.66016 3.27344,3.35938 4.84766,5.09766 1.57421,1.73828 3.10546,3.51562 4.59375,5.32812 1.48828,1.81641 2.92968,3.66407 4.32421,5.55078 1.39844,1.88282 2.7461,3.80079 4.05079,5.75391 1.30078,1.94922 2.55468,3.93359 3.76171,5.94531 1.20313,2.01172 2.35938,4.05469 3.46485,6.125 1.10547,2.07032 2.15625,4.16407 3.16015,6.28516 1.00391,2.12109 1.95313,4.26562 2.84766,6.43359 0.89844,2.16797 1.74219,4.35938 2.53125,6.56641 0.78906,2.21094 1.52734,4.4375 2.20703,6.68359 0.67969,2.2461 1.30469,4.50782 1.875,6.78516 0.57031,2.27734 1.08203,4.56641 1.53906,6.86719 0.45704,2.30078 0.85938,4.61328 1.20313,6.93359 0.34375,2.32422 0.63281,4.65234 0.85937,6.98828 0.23047,2.33203 0.40235,4.67188 0.51954,7.01563 0.11328,2.34765 0.17187,4.6914 0.17187,7.03906 z m -35.8125,0 c 0,-1.76172 -0.043,-3.51953 -0.12891,-5.27734 -0.0859,-1.75782 -0.21484,-3.51563 -0.38671,-5.26563 -0.17579,-1.75 -0.39063,-3.49609 -0.64844,-5.23828 -0.25781,-1.74219 -0.5586,-3.47656 -0.90235,-5.20313 -0.33984,-1.72656 -0.72656,-3.4414 -1.15234,-5.14843 -0.42969,-1.70703 -0.89844,-3.40235 -1.40625,-5.08985 -0.51172,-1.68359 -1.0625,-3.35156 -1.65625,-5.01172 -0.58984,-1.65625 -1.22266,-3.29687 -1.89844,-4.92578 -0.67187,-1.625 -1.38281,-3.23437 -2.13672,-4.82422 -0.75,-1.58984 -1.53906,-3.16406 -2.37109,-4.71484 -0.82812,-1.55078 -1.69531,-3.08203 -2.59766,-4.59375 -0.90234,-1.50781 -1.84375,-2.99609 -2.82031,-4.46094 -0.97656,-1.46093 -1.98828,-2.89843 -3.03906,-4.3125 -1.04688,-1.41406 -2.12891,-2.80078 -3.24219,-4.16406 -1.11719,-1.35937 -2.26562,-2.69141 -3.44531,-3.99609 -1.17969,-1.30469 -2.39063,-2.57813 -3.63672,-3.82422 -1.24219,-1.24219 -2.51562,-2.45703 -3.81641,-3.64063 -1.30468,-1.17968 -2.63671,-2.32812 -3.99609,-3.44531 -1.35937,-1.11719 -2.74219,-2.19922 -4.15625,-3.25 -1.41016,-1.04687 -2.84766,-2.05859 -4.3125,-3.03906 -1.46094,-0.97656 -2.94531,-1.91797 -4.45312,-2.82422 -1.50782,-0.90234 -3.03907,-1.76953 -4.58985,-2.60156 -1.55078,-0.82813 -3.12109,-1.6211 -4.71094,-2.3711 -1.58593,-0.7539 -3.19531,-1.46875 -4.82031,-2.14062 -1.625,-0.67188 -3.26172,-1.3086 -4.91797,-1.89844 -1.65625,-0.59375 -3.32422,-1.14453 -5.00781,-1.65625 -1.68359,-0.51172 -3.375,-0.98047 -5.08203,-1.41016 -1.70703,-0.42578 -3.42188,-0.8125 -5.14453,-1.15625 -1.72656,-0.34375 -3.45703,-0.64453 -5.19531,-0.90234 -1.74219,-0.25781 -3.48438,-0.47266 -5.23438,-0.64453 -1.75,-0.17188 -3.50391,-0.30469 -5.25781,-0.39063 -1.75781,-0.0859 -3.51563,-0.1289 -5.27344,-0.1289 -1.75781,0 -3.51562,0.043 -5.27344,0.1289 -1.7539,0.0859 -3.50781,0.21875 -5.25781,0.39063 -1.75,0.17187 -3.49219,0.38672 -5.23437,0.64453 -1.73829,0.25781 -3.46875,0.55859 -5.19532,0.90234 -1.72265,0.34375 -3.4375,0.73047 -5.14453,1.15625 -1.70703,0.42969 -3.39844,0.89844 -5.08203,1.41016 -1.68359,0.51172 -3.35156,1.0625 -5.00781,1.65625 -1.65625,0.58984 -3.29297,1.22656 -4.91797,1.89844 -1.625,0.67187 -3.23438,1.38672 -4.82031,2.14062 -1.58985,0.75 -3.16016,1.54297 -4.71094,2.3711 -1.55078,0.83203 -3.08203,1.69922 -4.58984,2.60156 -1.50782,0.90625 -2.99219,1.84766 -4.45313,2.82422 -1.46484,0.98047 -2.90234,1.99219 -4.3125,3.03906 -1.41406,1.05078 -2.79687,2.13281 -4.15625,3.25 -1.35937,1.11719 -2.69141,2.26563 -3.99609,3.44531 -1.30078,1.1836 -2.57422,2.39844 -3.81641,3.64063 -1.24609,1.24609 -2.45703,2.51953 -3.63672,3.82422 -1.17969,1.30468 -2.32812,2.63672 -3.44531,3.99609 -1.11328,1.36328 -2.19531,2.75 -3.24219,4.16406 -1.05078,1.41407 -2.0625,2.85157 -3.03906,4.3125 -0.97656,1.46485 -1.91797,2.95313 -2.82031,4.46094 -0.90235,1.51172 -1.76953,3.04297 -2.59766,4.59375 -0.83203,1.55078 -1.62109,3.125 -2.37109,4.71484 -0.75391,1.58985 -1.46485,3.19922 -2.13672,4.82422 -0.67578,1.62891 -1.3086,3.26953 -1.89844,4.92578 -0.59375,1.66016 -1.14453,3.32813 -1.65625,5.01172 -0.50781,1.6875 -0.97656,3.38282 -1.40625,5.08985 -0.42578,1.70703 -0.8125,3.42187 -1.15625,5.14843 -0.33984,1.72657 -0.64062,3.46094 -0.89844,5.20313 -0.25781,1.74219 -0.47265,3.48828 -0.64843,5.23828 -0.17188,1.75 -0.30079,3.50781 -0.38672,5.26563 -0.0859,1.75781 -0.12891,3.51562 -0.12891,5.27734 0,1.75781 0.043,3.51953 0.12891,5.27734 0.0859,1.75782 0.21484,3.51172 0.38672,5.26172 0.17578,1.75391 0.39062,3.5 0.64843,5.24219 0.25782,1.73828 0.5586,3.47266 0.89844,5.19922 0.34375,1.72656 0.73047,3.44531 1.15625,5.15234 0.42969,1.70703 0.89844,3.40235 1.40625,5.08594 0.51172,1.68359 1.0625,3.35547 1.65625,5.01172 0.58984,1.65625 1.22266,3.30078 1.89844,4.92578 0.67187,1.625 1.38281,3.23437 2.13672,4.82422 0.75,1.59375 1.53906,3.16406 2.37109,4.71484 0.82813,1.55469 1.69531,3.08594 2.59766,4.59375 0.90234,1.51172 1.84375,2.9961 2.82031,4.46094 0.97656,1.46484 1.98828,2.90234 3.03906,4.31641 1.04688,1.41406 2.12891,2.80078 3.24219,4.16015 1.11719,1.36328 2.26562,2.69531 3.44531,3.9961 1.17969,1.30468 2.39063,2.58203 3.63672,3.82421 1.24219,1.2461 2.51563,2.45704 3.81641,3.64063 1.30468,1.18359 2.63672,2.33203 3.99609,3.44922 1.35938,1.11719 2.74219,2.19922 4.15625,3.24609 1.41016,1.05078 2.84766,2.0625 4.3125,3.03906 1.46094,0.98047 2.94531,1.92188 4.45313,2.82422 1.50781,0.90625 3.03906,1.77344 4.58984,2.60157 1.55078,0.83203 3.12109,1.62109 4.71094,2.375 1.58593,0.7539 3.19531,1.46484 4.82031,2.14062 1.625,0.67188 3.26172,1.30469 4.91797,1.89844 1.65625,0.59375 3.32422,1.14453 5.00781,1.65625 1.68359,0.51172 3.375,0.98047 5.08203,1.40625 1.70703,0.42969 3.42188,0.8125 5.14453,1.15625 1.72657,0.34375 3.45703,0.64453 5.19532,0.90234 1.74218,0.25781 3.48437,0.47656 5.23437,0.64844 1.75,0.17187 3.50391,0.30078 5.25781,0.38672 1.75782,0.0859 3.51563,0.1289 5.27344,0.1289 1.75781,0 3.51563,-0.0469 5.26953,-0.13281 1.75391,-0.0898 3.50781,-0.22265 5.25781,-0.39453 1.75,-0.17578 3.49219,-0.39062 5.23047,-0.65234 1.73828,-0.25782 3.46875,-0.5625 5.19532,-0.90625 1.72265,-0.34375 3.4375,-0.73047 5.14062,-1.16016 1.70703,-0.42969 3.39844,-0.89844 5.07813,-1.41016 1.68359,-0.51171 3.35156,-1.0664 5.00781,-1.66015 1.65234,-0.59375 3.29297,-1.22656 4.91406,-1.90235 1.625,-0.67187 3.23047,-1.38671 4.82031,-2.14062 1.58985,-0.75391 3.15625,-1.54297 4.70703,-2.375 1.55079,-0.82813 3.07813,-1.69922 4.58594,-2.60156 1.50781,-0.90625 2.99219,-1.84766 4.45313,-2.82422 1.46093,-0.98047 2.89843,-1.99219 4.30859,-3.04297 1.41406,-1.04688 2.79688,-2.12891 4.15625,-3.24609 1.35938,-1.11719 2.6875,-2.26563 3.99219,-3.44532 1.30078,-1.18359 2.57422,-2.39453 3.8164,-3.64062 1.24219,-1.24219 2.45313,-2.51953 3.63672,-3.82031 1.17969,-1.30469 2.32813,-2.63672 3.44141,-3.9961 1.11719,-1.35937 2.19922,-2.74609 3.24609,-4.16015 1.04688,-1.41407 2.0586,-2.85157 3.03516,-4.3125 0.97656,-1.46485 1.91797,-2.94922 2.82031,-4.45704 0.90625,-1.51171 1.77344,-3.04296 2.60156,-4.59375 0.82813,-1.55078 1.6211,-3.12109 2.3711,-4.71093 0.7539,-1.58985 1.46875,-3.19922 2.14062,-4.82422 0.67188,-1.625 1.3086,-3.26563 1.89844,-4.92188 0.59375,-1.65625 1.14844,-3.32812 1.66016,-5.00781 0.51172,-1.68359 0.98047,-3.37891 1.41015,-5.08594 0.42578,-1.70703 0.8125,-3.42187 1.15625,-5.14843 0.34375,-1.72657 0.64844,-3.45704 0.90625,-5.19922 0.26172,-1.73828 0.47657,-3.48438 0.65235,-5.23828 0.17187,-1.75 0.30468,-3.50391 0.39062,-5.26172 0.0899,-1.75782 0.13281,-3.51563 0.13672,-5.27344 z m 0,0"
       fill-opacity="1"
       fill-rule="nonzero"
       id="path2" />
  </g>
  <rect
     style="opacity:0;fill:#000000;stroke-width:0.75"
     id="rect2"
     width="305.21738"
     height="374.08698"
     x="7.6179322e-06"
     y="-1.8686644e-05"
     ry="7.3874226" />
</svg>
